<?xml version="1.0" encoding="UTF-8"?>
<!DOCTYPE svg PUBLIC "-//W3C//DTD SVG 1.1//EN" "http://www.w3.org/Graphics/SVG/1.1/DTD/svg11.dtd">
<!-- Creator: CorelDRAW X8 -->
<svg xmlns="http://www.w3.org/2000/svg" xml:space="preserve" width="183.826mm" height="157.576mm" version="1.1" style="shape-rendering:geometricPrecision; text-rendering:geometricPrecision; image-rendering:optimizeQuality; fill-rule:evenodd; clip-rule:evenodd"
viewBox="0 0 18958 16251"
 xmlns:xlink="http://www.w3.org/1999/xlink">
 <defs>
  <style type="text/css">
   <![CDATA[
    .str0 {stroke:#373435;stroke-width:7.85853}
    .fil0 {fill:#373435}
   ]]>
  </style>
 </defs>
 <g id="Camada_x0020_1">
  <metadata id="CorelCorpID_0Corel-Layer"/>
  <path class="fil0 str0" d="M17262 1358l-3722 0 -1354 -1354 -5414 0 -1354 1354 -3722 0c-935,0 -1692,757 -1692,1692l0 11505c0,935 757,1692 1692,1692l15566 0c935,0 1692,-757 1692,-1692l0 -11506c0,-934 -757,-1691 -1692,-1691l0 0zm-7783 2566c2835,0 5132,2238 5132,4999 0,2760 -2297,4998 -5132,4998 -2835,0 -5132,-2238 -5132,-4998 0,-2761 2297,-4999 5132,-4999zm-896 8622l1792 0 0 -2727 2727 0 0 -1793 -2727 0 0 -2726 -1792 0 0 2726 -2727 0 0 1793 2727 0 0 2727z"/>
 </g>
</svg>
